<?xml version="1.0" encoding="utf-8"?>
<!-- Generator: Adobe Illustrator 27.7.0, SVG Export Plug-In . SVG Version: 6.00 Build 0)  -->
<svg version="1.1" id="Layer_1" xmlns="http://www.w3.org/2000/svg" xmlns:xlink="http://www.w3.org/1999/xlink" x="0px" y="0px"
	 viewBox="0 0 100 125" style="enable-background:new 0 0 100 125;" xml:space="preserve" fill="currentColor">
<path d="M50,104.4c1.4,0,2.5,0.5,3.5,1.5c1,1,1.5,2.2,1.5,3.6c0,1.4-0.5,2.5-1.5,3.5c-1,1-2.2,1.5-3.5,1.5c-1.4,0-2.6-0.5-3.6-1.5
	s-1.5-2.2-1.5-3.5c0-1.4,0.5-2.6,1.5-3.6C47.4,104.9,48.6,104.4,50,104.4z M15.5,71c0.6,0,1.1,0.2,1.4,0.5c0.4,0.3,0.6,0.8,0.6,1.4
	l0.1,1.1l0.1,1l0.1,1l0.1,0.9l0.1,0.8l0.1,0.7c0,0.1,0,0.2,0.1,0.3c0.3,1.4,0.8,2.5,1.5,3.2c0.7,0.7,1.8,1.2,3.2,1.5l0.6,0.1
	l0.7,0.1l0.8,0.1l0.9,0.1l0.9,0.1l1,0.1l1.1,0.1c0.5,0.1,1,0.3,1.3,0.7c0.3,0.4,0.5,0.8,0.5,1.4c0,0.6-0.2,1-0.5,1.4
	c-0.3,0.4-0.8,0.6-1.3,0.7l-1.6,0.2l-1,0.2l-1.3,0.2l-0.8,0.1l-0.7,0.1l-0.6,0.1c-1.4,0.3-2.5,0.8-3.2,1.5c-0.7,0.7-1.2,1.7-1.5,3.1
	l-0.1,0.6l-0.1,0.7L18,96.3l-0.1,0.8l-0.1,0.9l-0.1,1l-0.1,1.1c-0.1,0.6-0.3,1-0.6,1.3c-0.4,0.3-0.8,0.5-1.4,0.5
	c-0.5,0-1-0.2-1.3-0.5c-0.4-0.3-0.6-0.8-0.7-1.3l-0.2-1.6l-0.1-1L13,96.8L12.8,96c0-0.1,0-0.3-0.1-0.4l-0.1-0.7
	c0-0.2-0.1-0.4-0.1-0.6c-0.3-1.4-0.8-2.4-1.5-3.1c-0.7-0.7-1.8-1.2-3.2-1.5l-0.6-0.1l-0.7-0.1l-0.8-0.1L4.3,89l-1.5-0.2l-1.1-0.2
	c-0.6-0.1-1-0.3-1.3-0.7C0.2,87.5,0,87.1,0,86.5c0-0.6,0.2-1.1,0.5-1.4c0.3-0.4,0.8-0.6,1.3-0.7l1.1-0.1l1-0.1L4.8,84l0.9-0.1
	l0.8-0.1l0.7-0.1l0.6-0.1c1.4-0.3,2.5-0.8,3.2-1.5c0.7-0.7,1.2-1.7,1.5-3.2l0.1-0.7l0.1-0.8l0.1-0.8l0.1-0.9l0.1-1l0.1-1.1
	c0-0.2,0-0.4,0.1-0.6c0.1-0.6,0.3-1,0.7-1.4C14.5,71.1,14.9,71,15.5,71z M84.5,71c0.6,0,1.1,0.2,1.4,0.5s0.6,0.8,0.7,1.4l0.1,1.1
	l0.1,1l0.1,1l0.1,0.9l0.1,0.8l0.1,0.7c0,0.1,0,0.2,0.1,0.3c0.3,1.4,0.8,2.5,1.5,3.2c0.7,0.7,1.8,1.2,3.2,1.5l0.3,0.1l0.7,0.2
	l0.8,0.2c0.1,0,0.3,0.1,0.4,0.1l0.9,0.2l1,0.2l1.1,0.2c0.2,0,0.4,0.1,0.6,0.1c0.6,0.1,1,0.3,1.4,0.7c0.3,0.4,0.5,0.8,0.5,1.4
	c0,0.6-0.2,1-0.5,1.4c-0.3,0.4-0.8,0.6-1.4,0.7L97,88.7L96,88.9l-1,0.2l-0.9,0.2l-0.8,0.2c-0.1,0-0.3,0-0.4,0.1l-0.7,0.1
	c-1.4,0.3-2.5,0.8-3.2,1.5c-0.7,0.7-1.2,1.7-1.5,3.1l-0.1,0.3l-0.1,0.7c0,0.1,0,0.2-0.1,0.4l-0.1,0.8L87,97.2l-0.2,1.4l-0.2,1.6
	c-0.1,0.6-0.3,1-0.7,1.3c-0.4,0.3-0.8,0.5-1.4,0.5c-0.6,0-1-0.2-1.4-0.5c-0.4-0.3-0.6-0.8-0.7-1.3l-0.1-1.1l-0.1-1L82,97.2l-0.1-0.8
	l-0.1-0.8l-0.1-0.7l-0.1-0.6c-0.3-1.4-0.8-2.4-1.5-3.1c-0.7-0.7-1.7-1.2-3.2-1.5l-0.6-0.1l-0.7-0.1l-0.8-0.1L73.4,89l-1.5-0.2
	l-1.1-0.2c-0.6-0.1-1-0.3-1.3-0.7c-0.3-0.4-0.5-0.8-0.5-1.4c0-0.6,0.2-1.1,0.5-1.4s0.7-0.6,1.3-0.7l1.1-0.1l1-0.1l0.9-0.1l0.9-0.1
	l0.8-0.1l0.7-0.1l0.6-0.1c1.4-0.3,2.5-0.8,3.2-1.5c0.7-0.7,1.2-1.7,1.5-3.2l0.1-0.3l0.1-0.7l0.1-0.8L82,76l0.1-1l0.1-1l0.1-1.1
	c0.1-0.6,0.3-1,0.7-1.4S83.9,71,84.5,71L84.5,71z M50,61.5c1.4,0,2.5,0.5,3.5,1.5c1,1,1.5,2.2,1.5,3.5c0,1.4-0.5,2.6-1.5,3.5
	c-1,1-2.2,1.5-3.5,1.5c-1.4,0-2.6-0.5-3.6-1.5S45,67.9,45,66.5c0-1.4,0.5-2.5,1.5-3.5C47.4,62,48.6,61.5,50,61.5z M87.9,42.5
	c1.4,0,2.5,0.5,3.5,1.5c1,1,1.5,2.2,1.5,3.6c0,1.4-0.5,2.6-1.5,3.5c-1,1-2.1,1.5-3.5,1.5c-1.4,0-2.6-0.5-3.6-1.5
	c-1-1-1.5-2.2-1.5-3.5c0-1.4,0.5-2.6,1.5-3.6C85.3,43,86.5,42.5,87.9,42.5z M12.1,42.5c1.4,0,2.6,0.5,3.6,1.5s1.5,2.2,1.5,3.6
	c0,1.4-0.5,2.6-1.5,3.5c-1,1-2.2,1.5-3.6,1.5c-1.3,0-2.5-0.5-3.5-1.5s-1.5-2.2-1.5-3.5c0-1.4,0.5-2.6,1.5-3.6S10.8,42.5,12.1,42.5z
	 M50,10.6c0.6,0,1,0.2,1.4,0.5c0.4,0.3,0.6,0.8,0.7,1.4l0.1,1.1l0.1,1c0,0.2,0,0.3,0.1,0.5l0.1,0.9l0.1,0.8l0.1,0.7
	c0,0.1,0,0.2,0.1,0.3l0.1,0.6c0.3,1.4,0.8,2.4,1.5,3.1c0.7,0.7,1.7,1.2,3.2,1.5l0.7,0.1l0.7,0.1l1.2,0.2l0.9,0.2l1,0.2l1.6,0.2
	c0.6,0.1,1,0.3,1.3,0.6c0.3,0.4,0.5,0.8,0.5,1.4s-0.2,1-0.5,1.4c-0.3,0.3-0.6,0.5-1.1,0.6l-1.8,0.3l-1,0.2l-1.3,0.2L59,28.9L58.3,29
	c-0.2,0-0.4,0.1-0.7,0.1c-1.4,0.3-2.5,0.8-3.2,1.5c-0.7,0.7-1.2,1.7-1.5,3.1l-0.1,0.3l-0.1,0.7l-0.1,0.8l-0.1,0.9l-0.1,1l-0.1,1
	l-0.1,1.1c-0.1,0.6-0.3,1.1-0.7,1.4c-0.4,0.3-0.8,0.5-1.4,0.5c-0.6,0-1.1-0.2-1.4-0.5c-0.3-0.3-0.5-0.7-0.6-1.2L47.7,38l-0.1-1
	l-0.1-0.9c0-0.1,0-0.3-0.1-0.4l-0.1-0.8c0-0.1,0-0.3-0.1-0.4L47,33.8c-0.3-1.4-0.8-2.5-1.5-3.1s-1.8-1.2-3.2-1.5L42,29.1l-0.7-0.1
	l-0.8-0.1l-0.8-0.1l-0.9-0.2l-1-0.2l-1.6-0.2c-0.6-0.1-1-0.3-1.3-0.7c-0.3-0.4-0.5-0.8-0.5-1.4c0-0.6,0.2-1,0.5-1.4
	c0.3-0.3,0.6-0.5,1.1-0.6l1.8-0.3l1.4-0.2l0.9-0.2l0.8-0.1l0.7-0.1l0.6-0.1c1.4-0.3,2.5-0.8,3.2-1.5c0.7-0.7,1.2-1.7,1.5-3.1
	l0.1-0.6l0.1-0.7c0-0.1,0-0.3,0.1-0.4l0.1-0.8l0.1-0.9l0.1-1l0.2-1.6c0.1-0.6,0.3-1.1,0.7-1.4C49,10.7,49.4,10.6,50,10.6z"/>
</svg>
