<?xml version="1.0" encoding="utf-8"?>
<!-- Generator: Adobe Illustrator 27.7.0, SVG Export Plug-In . SVG Version: 6.00 Build 0)  -->
<svg fill="currentColor" version="1.1" id="Layer_1" xmlns="http://www.w3.org/2000/svg" xmlns:xlink="http://www.w3.org/1999/xlink" x="0px" y="0px"
	 viewBox="0 0 100 125" style="enable-background:new 0 0 100 125;" xml:space="preserve">
<g>
	<path d="M69.4,101.4h-8.3c-1.5,0-2.8-1.2-2.8-2.8c0-1.5,1.2-2.8,2.8-2.8h8.3c1.5,0,2.8,1.2,2.8,2.8C72.2,100.1,71,101.4,69.4,101.4
		z"/>
	<path d="M69.4,93.1h-8.3c-1.5,0-2.8-1.2-2.8-2.8c0-1.5,1.2-2.8,2.8-2.8h8.3c1.5,0,2.8,1.2,2.8,2.8C72.2,91.8,71,93.1,69.4,93.1z"/>
	<path d="M79.2,0H20.8C14.7,0,9.7,5,9.7,11.1v91.7c0,6.1,5,11.1,11.1,11.1h19.4v8.3c0,1.5,1.2,2.8,2.8,2.8c1.5,0,2.8-1.2,2.8-2.8
		v-8.3h8.3v8.3c0,1.5,1.2,2.8,2.8,2.8c1.5,0,2.8-1.2,2.8-2.8v-8.3h19.4c6.1,0,11.1-5,11.1-11.1V11.1C90.3,5,85.3,0,79.2,0z
		 M84.7,102.8c0,3.1-2.5,5.6-5.6,5.6H20.8c-3.1,0-5.6-2.5-5.6-5.6V80.6h69.4V102.8z M84.7,75H15.3V11.1c0-3.1,2.5-5.6,5.6-5.6h58.3
		c3.1,0,5.6,2.5,5.6,5.6V75z"/>
	<path d="M47.2,102.8H30.6c-1.5,0-2.8-1.2-2.8-2.8V88.9c0-1.5,1.2-2.8,2.8-2.8h16.7c1.5,0,2.8,1.2,2.8,2.8V100
		C50,101.5,48.8,102.8,47.2,102.8z M33.3,97.2h11.1v-5.6H33.3V97.2z"/>
</g>
</svg>
