<?xml version="1.0" encoding="utf-8"?>
<!-- Generator: Adobe Illustrator 27.7.0, SVG Export Plug-In . SVG Version: 6.00 Build 0)  -->
<svg fill="currentColor" version="1.1" id="Layer_1" xmlns="http://www.w3.org/2000/svg" xmlns:xlink="http://www.w3.org/1999/xlink" x="0px" y="0px"
	 viewBox="0 0 512 512" style="enable-background:new 0 0 512 512;" xml:space="preserve">
<path d="M478.9,154.8l-8-6.3V61.9c0-12.2-9.8-22-22-22h-38.6c-12.2,0-22,9.8-22,22v21.6l-83.1-65.4C291.3,7.1,273.7,1,256,1
	c-17.8,0-35.3,6.1-49.3,17.2L33,154.9c-19.4,15.2-30.5,38.3-30.5,63.2v50.1V307v182c0,12.2,9.8,22,22,22h463.1c12.2,0,22-9.8,22-22
	V307v-38.9V218C509.5,193.2,498.4,170.2,478.9,154.8z M24.5,218.1c0-18.1,8.1-34.9,22.2-45.9L220.3,35.4C230.8,27.1,243.4,23,256,23
	c12.6,0,25.2,4.1,35.7,12.4l118.7,93.5v-67h38.6v97h-0.4l16.7,13.2c14.1,11.1,22.2,27.8,22.2,45.9v50.1V283H24.5v-14.8V218.1z
	 M487.5,489H24.5V307V305h463.1v1.9V489z"/>
</svg>
