<?xml version="1.0" encoding="iso-8859-1"?>
<!-- Generator: Adobe Illustrator 27.1.1, SVG Export Plug-In . SVG Version: 6.00 Build 0)  -->
<svg version="1.1" xmlns="http://www.w3.org/2000/svg" xmlns:xlink="http://www.w3.org/1999/xlink" x="0px" y="0px"
	 viewBox="0 0 92 92" style="enable-background:new 0 0 92 92;" xml:space="preserve">
<g id="Sleet_Showers__x28_Day_x29_">
	<g>
		<path style="fill:#EEEEEE;" d="M67.401,69.001c-1.206,0-2.343-0.731-2.801-1.924c-0.595-1.547,0.177-3.282,1.723-3.877
			c1.178-0.453,2.29-0.881,3.213-1.496C73.38,59.083,75.6,54.992,75.6,50.5c0-7.224-5.877-13.1-13.1-13.1
			c-1.731,0-3.46,0.355-5.286,1.085c-1.51,0.604-3.228-0.105-3.87-1.6C50.342,29.908,43.416,25.4,35.7,25.4
			c-10.587,0-19.2,8.613-19.2,19.2c0,6.606,3.473,12.72,9.29,16.356c0.099,0.062,0.193,0.129,0.284,0.201
			c0.578,0.463,1.53,0.856,2.452,1.237l0.328,0.136c1.529,0.638,2.252,2.394,1.616,3.923c-0.637,1.529-2.39,2.255-3.923,1.616
			l-0.314-0.13c-1.199-0.496-2.551-1.056-3.759-1.981C14.973,61.208,10.5,53.236,10.5,44.6c0-13.896,11.305-25.2,25.2-25.2
			c9.174,0,17.505,4.88,21.923,12.639c1.63-0.428,3.242-0.639,4.877-0.639c10.531,0,19.1,8.568,19.1,19.1
			c0,6.508-3.175,12.404-8.709,16.179c-1.504,1.002-3.049,1.597-4.413,2.121C68.123,68.937,67.759,69.001,67.401,69.001z"/>
	</g>
	<g>
		<g>
			<g>
				<g>
					<path style="fill:#FFED54;" d="M59.5,10.986c-1.657,0-3-1.343-3-3V3.3c0-1.657,1.343-3,3-3s3,1.343,3,3v4.686
						C62.5,9.643,61.157,10.986,59.5,10.986z"/>
				</g>
				<g>
					<path style="fill:#FFED54;" d="M74.338,17.162c-0.768,0-1.535-0.293-2.121-0.878c-1.172-1.171-1.172-3.071,0-4.243l3.407-3.408
						c1.17-1.172,3.07-1.171,4.242,0c1.172,1.171,1.172,3.071,0,4.243l-3.407,3.408C75.874,16.869,75.105,17.162,74.338,17.162z"/>
				</g>
				<g>
					<path style="fill:#FFED54;" d="M85.2,32h-4.686c-1.657,0-3-1.343-3-3s1.343-3,3-3H85.2c1.657,0,3,1.343,3,3S86.857,32,85.2,32z
						"/>
				</g>
				<g>
					<path style="fill:#FFED54;" d="M44.662,17.162c-0.768,0-1.536-0.293-2.121-0.879l-3.408-3.408
						c-1.172-1.171-1.172-3.071,0-4.242c1.171-1.172,3.071-1.172,4.242,0l3.408,3.408c1.172,1.171,1.172,3.071,0,4.242
						C46.198,16.869,45.43,17.162,44.662,17.162z"/>
				</g>
			</g>
		</g>
		<g>
			<path style="fill:#FFED54;" d="M51.695,25.149c1.425-2.876,4.384-4.863,7.805-4.863c4.805,0,8.714,3.909,8.714,8.714
				c0,1.109-0.216,2.166-0.596,3.143c1.963,0.559,3.805,1.409,5.457,2.526c0.732-1.746,1.139-3.66,1.139-5.669
				c0-8.113-6.601-14.714-14.714-14.714c-5.542,0-10.374,3.082-12.883,7.62C48.438,22.78,50.14,23.872,51.695,25.149z"/>
		</g>
	</g>
	<g>
		<path style="fill:#ACE4FE;" d="M37.229,70.31c-0.339,0-0.684-0.086-0.999-0.269c-0.957-0.553-1.284-1.775-0.731-2.732l0.998-1.727
			c0.552-0.956,1.776-1.286,2.732-0.73c0.957,0.553,1.284,1.775,0.731,2.732l-0.998,1.727C38.592,69.951,37.919,70.31,37.229,70.31z
			"/>
	</g>
	<g>
		<path style="fill:#ACE4FE;" d="M39.229,79.31c-0.339,0-0.684-0.086-0.999-0.269c-0.957-0.553-1.284-1.775-0.731-2.732l0.998-1.727
			c0.552-0.955,1.776-1.286,2.732-0.73c0.957,0.553,1.284,1.775,0.731,2.732l-0.998,1.727C40.592,78.951,39.919,79.31,39.229,79.31z
			"/>
	</g>
	<path style="fill:#EEEEEE;" d="M58.054,72.203l-1.351,0.338l-0.473,0.203l-1.148-0.675c0.135-0.473,0.135-0.946,0-1.351
		l1.148-0.675l0.473,0.203l1.553,0.338c0.473,0,0.81-0.405,0.81-0.878c0-0.405-0.27-0.743-0.608-0.81l-1.418-0.338l-0.068-0.068
		v-0.068l0.338-1.351c0.135-0.473-0.135-0.946-0.54-1.081c-0.473-0.135-0.946,0.135-1.081,0.54v0.068l-0.338,1.351l-0.068,0.54
		l-1.148,0.675c-0.27-0.27-0.608-0.405-1.013-0.54v-1.351l0.405-0.338l1.013-1.013c0.338-0.338,0.338-0.878,0-1.216
		c-0.338-0.338-0.878-0.338-1.216,0l-1.013,1.013c-0.068,0.068-0.135,0.068-0.135,0l-1.013-1.013c-0.338-0.338-0.878-0.338-1.216,0
		c-0.338,0.338-0.338,0.878,0,1.216l1.013,1.013l0.405,0.338v1.351c-0.338,0.135-0.675,0.27-1.013,0.54l-1.148-0.675l-0.068-0.54
		l-0.338-1.351c-0.068-0.473-0.54-0.743-1.013-0.675c-0.473,0.068-0.743,0.54-0.675,1.013l0.338,1.351v0.068l-0.068,0.068
		l-1.351,0.338c-0.473,0.135-0.743,0.54-0.608,1.013c0.068,0.405,0.405,0.675,0.81,0.675l1.553-0.338l0.473-0.203l1.148,0.675
		c-0.135,0.473-0.135,0.946,0,1.351l-1.148,0.675l-0.473-0.203l-1.351-0.338c-0.473-0.135-0.946,0.135-1.081,0.54
		c-0.135,0.473,0.135,0.946,0.54,1.081h0.135l1.351,0.338l0.068,0.068v0.068l-0.338,1.351c-0.135,0.473,0.203,0.878,0.608,1.013
		c0.473,0.135,0.878-0.203,1.013-0.608l0.338-1.351l0.068-0.54l1.148-0.675c0.27,0.27,0.608,0.405,1.013,0.54v1.351l-0.405,0.338
		l-1.013,1.013c-0.338,0.338-0.338,0.878,0,1.216c0.338,0.338,0.878,0.338,1.216,0l1.013-1.013c0.068-0.068,0.135-0.068,0.135,0
		l1.013,1.013c0.338,0.338,0.878,0.338,1.216,0c0.338-0.338,0.338-0.878,0-1.216l-1.013-1.013l-0.405-0.338v-1.351
		c0.338-0.135,0.675-0.27,1.013-0.54l1.148,0.675l0.068,0.54l0.338,1.351c0.135,0.473,0.54,0.743,1.013,0.608
		c0.473-0.135,0.743-0.54,0.608-1.013l-0.338-1.351v-0.068l0.068-0.068l1.351-0.338c0.473-0.135,0.743-0.54,0.608-1.013
		C59,72.406,58.527,72.136,58.054,72.203z M52.313,72.541c-0.608,0-1.148-0.473-1.148-1.148c0-0.675,0.473-1.148,1.148-1.148
		c0.675,0,1.148,0.473,1.148,1.148C53.461,72.068,52.988,72.541,52.313,72.541z"/>
</g>
<g id="Layer_1">
</g>
</svg>
