<?xml version="1.0" encoding="iso-8859-1"?>
<!-- Generator: Adobe Illustrator 27.1.1, SVG Export Plug-In . SVG Version: 6.00 Build 0)  -->
<svg version="1.1" xmlns="http://www.w3.org/2000/svg" xmlns:xlink="http://www.w3.org/1999/xlink" x="0px" y="0px"
	 viewBox="0 0 92 92" style="enable-background:new 0 0 92 92;" xml:space="preserve">
	<path style="fill:#EEEEEE;" d="M46,64.3c-10.9,0-19.7-8.9-19.7-19.8s8.9-19.7,19.8-19.7c1.2,0,2.4,0.1,3.6,0.3
		c-1.6,7.1,2.8,14.2,9.9,15.8c2,0.5,4,0.5,5.9,0l0.3,3.6C65.8,55.4,56.9,64.3,46,64.3z M43,31.7c-7.1,1.6-11.5,8.7-9.9,15.8
		S41.9,59,49,57.3c4.9-1.1,8.7-5,9.9-9.9C50.8,46,44.5,39.7,43,31.7z"/>

</svg>
