<?xml version="1.0" encoding="iso-8859-1"?>
<!-- Generator: Adobe Illustrator 27.1.1, SVG Export Plug-In . SVG Version: 6.00 Build 0)  -->
<svg version="1.1" xmlns="http://www.w3.org/2000/svg" xmlns:xlink="http://www.w3.org/1999/xlink" x="0px" y="0px"
	 viewBox="0 0 92 92" style="enable-background:new 0 0 92 92;" xml:space="preserve">
<g id="Hail_Showers__x28_Day_x29_">
	<g>
		<path style="fill:#EEEEEE;" d="M67.401,69.001c-1.206,0-2.343-0.731-2.801-1.924c-0.595-1.547,0.177-3.282,1.723-3.877
			c1.178-0.453,2.29-0.881,3.213-1.496C73.38,59.083,75.6,54.992,75.6,50.5c0-7.224-5.877-13.1-13.1-13.1
			c-1.731,0-3.46,0.355-5.286,1.085c-1.51,0.604-3.228-0.105-3.87-1.6C50.342,29.908,43.416,25.4,35.7,25.4
			c-10.587,0-19.2,8.613-19.2,19.2c0,6.606,3.473,12.72,9.29,16.356c0.099,0.062,0.193,0.129,0.284,0.201
			c0.578,0.463,1.53,0.856,2.452,1.237l0.328,0.136c1.529,0.638,2.252,2.394,1.616,3.923c-0.637,1.529-2.39,2.255-3.923,1.616
			l-0.314-0.13c-1.199-0.496-2.551-1.056-3.759-1.981C14.973,61.208,10.5,53.236,10.5,44.6c0-13.896,11.305-25.2,25.2-25.2
			c9.174,0,17.505,4.88,21.923,12.639c1.63-0.428,3.242-0.639,4.877-0.639c10.531,0,19.1,8.568,19.1,19.1
			c0,6.508-3.175,12.404-8.709,16.179c-1.504,1.002-3.049,1.597-4.413,2.121C68.123,68.937,67.759,69.001,67.401,69.001z"/>
	</g>
	<g>
		<g>
			<g>
				<g>
					<path style="fill:#FFED54;" d="M59.5,10.986c-1.657,0-3-1.343-3-3V3.3c0-1.657,1.343-3,3-3s3,1.343,3,3v4.686
						C62.5,9.643,61.157,10.986,59.5,10.986z"/>
				</g>
				<g>
					<path style="fill:#FFED54;" d="M74.338,17.162c-0.768,0-1.535-0.293-2.121-0.878c-1.172-1.171-1.172-3.071,0-4.243l3.407-3.408
						c1.17-1.172,3.07-1.171,4.242,0c1.172,1.171,1.172,3.071,0,4.243l-3.407,3.408C75.874,16.869,75.105,17.162,74.338,17.162z"/>
				</g>
				<g>
					<path style="fill:#FFED54;" d="M85.2,32h-4.686c-1.657,0-3-1.343-3-3s1.343-3,3-3H85.2c1.657,0,3,1.343,3,3S86.857,32,85.2,32z
						"/>
				</g>
				<g>
					<path style="fill:#FFED54;" d="M44.662,17.162c-0.768,0-1.536-0.293-2.121-0.879l-3.408-3.408
						c-1.172-1.171-1.172-3.071,0-4.242c1.171-1.172,3.071-1.172,4.242,0l3.408,3.408c1.172,1.171,1.172,3.071,0,4.242
						C46.198,16.869,45.43,17.162,44.662,17.162z"/>
				</g>
			</g>
		</g>
		<g>
			<path style="fill:#FFED54;" d="M51.695,25.149c1.425-2.876,4.384-4.863,7.805-4.863c4.805,0,8.714,3.909,8.714,8.714
				c0,1.109-0.216,2.166-0.596,3.143c1.963,0.559,3.805,1.409,5.457,2.526c0.732-1.746,1.139-3.66,1.139-5.669
				c0-8.113-6.601-14.714-14.714-14.714c-5.542,0-10.374,3.082-12.883,7.62C48.438,22.78,50.14,23.872,51.695,25.149z"/>
		</g>
	</g>
	<g>
		<path style="fill:#EEEEEE;" d="M37.289,88.356c-0.552,0-1-0.447-1-1c0-2.003-1.629-3.632-3.631-3.632c-0.552,0-1-0.447-1-1
			s0.448-1,1-1c1.382,0,2.65,0.501,3.631,1.33V69.001c0-0.553,0.448-1,1-1s1,0.447,1,1v18.355
			C38.289,87.909,37.841,88.356,37.289,88.356z"/>
	</g>
	<circle style="fill:#EEEEEE;" cx="26.689" cy="82.628" r="3"/>
	<circle style="fill:#EEEEEE;" cx="46.689" cy="81.628" r="3"/>
	<g>
		<path style="fill:#EEEEEE;" d="M46.689,76.608c-0.552,0-1-0.447-1-1v-6.607c0-0.553,0.448-1,1-1s1,0.447,1,1v6.607
			C47.689,76.161,47.241,76.608,46.689,76.608z"/>
	</g>
	<g>
		<path style="fill:#EEEEEE;" d="M55.688,88.356c-0.553,0-1-0.447-1-1V69.001c0-0.553,0.447-1,1-1s1,0.447,1,1v10.666
			c1.121-1.758,2.803-3.039,5.256-3.039c0.553,0,1,0.447,1,1s-0.447,1-1,1c-4.312,0-5.256,6.301-5.256,8.729
			C56.688,87.909,56.241,88.356,55.688,88.356z"/>
	</g>
	<circle style="fill:#EEEEEE;" cx="68.332" cy="77.628" r="3"/>
</g>
<g id="Layer_1">
</g>
</svg>
