<?xml version="1.0" encoding="iso-8859-1"?>
<!-- Generator: Adobe Illustrator 27.1.1, SVG Export Plug-In . SVG Version: 6.00 Build 0)  -->
<svg version="1.1" xmlns="http://www.w3.org/2000/svg" xmlns:xlink="http://www.w3.org/1999/xlink" x="0px" y="0px"
	 viewBox="0 0 92 92" style="enable-background:new 0 0 92 92;" xml:space="preserve">
<g id="Cloudy">
	<g>
		<path style="fill:#EEEEEE;" d="M35.6,69.8c-13.896,0-25.2-11.305-25.2-25.2c0-13.896,11.305-25.2,25.2-25.2
			c9.174,0,17.504,4.88,21.922,12.639C59.153,31.61,60.766,31.4,62.4,31.4c10.531,0,19.1,8.568,19.1,19.1
			c0,10.531-8.568,19.1-19.1,19.1l-26.778,0.2C35.615,69.8,35.607,69.8,35.6,69.8z M35.6,25.4c-10.587,0-19.2,8.613-19.2,19.2
			c0,10.583,8.607,19.194,19.188,19.2l26.79-0.2c7.245,0,13.122-5.876,13.122-13.1s-5.877-13.1-13.1-13.1
			c-1.731,0-3.46,0.355-5.286,1.085c-1.512,0.604-3.226-0.105-3.87-1.599C50.241,29.909,43.315,25.4,35.6,25.4z"/>
	</g>
</g>
<g id="Layer_1">
</g>
</svg>
