<?xml version="1.0" encoding="iso-8859-1"?>
<!-- Generator: Adobe Illustrator 27.1.1, SVG Export Plug-In . SVG Version: 6.00 Build 0)  -->
<svg version="1.1" xmlns="http://www.w3.org/2000/svg" xmlns:xlink="http://www.w3.org/1999/xlink" x="0px" y="0px"
	 viewBox="0 0 92 92" style="enable-background:new 0 0 92 92;" xml:space="preserve">
<g id="Sunny_Day">
	<g>
		<g>
			<g>
				<path style="fill:#FFED54;" d="M46,17.9c-1.657,0-3-1.343-3-3V8.3c0-1.657,1.343-3,3-3c1.657,0,3,1.343,3,3v6.6
					C49,16.557,47.657,17.9,46,17.9z"/>
			</g>
			<g>
				<path style="fill:#FFED54;" d="M66.9,26.6c-0.768,0-1.535-0.293-2.121-0.878c-1.172-1.172-1.172-3.071,0-4.243l4.8-4.8
					c1.17-1.172,3.07-1.171,4.242,0c1.172,1.172,1.172,3.071,0,4.243l-4.8,4.8C68.437,26.307,67.668,26.6,66.9,26.6z"/>
			</g>
			<g>
				<path style="fill:#FFED54;" d="M82.2,47.5H75.6c-1.657,0-3-1.343-3-3s1.343-3,3-3H82.2c1.657,0,3,1.343,3,3
					S83.857,47.5,82.2,47.5z"/>
			</g>
			<g>
				<path style="fill:#FFED54;" d="M71.7,73.2c-0.768,0-1.535-0.293-2.121-0.879l-4.8-4.8c-1.172-1.171-1.172-3.071,0-4.242
					c1.172-1.172,3.07-1.172,4.242,0l4.8,4.8c1.172,1.171,1.172,3.071,0,4.242C73.235,72.907,72.468,73.2,71.7,73.2z"/>
			</g>
			<g>
				<path style="fill:#FFED54;" d="M46,83.7c-1.657,0-3-1.343-3-3V74.1c0-1.657,1.343-3,3-3c1.657,0,3,1.343,3,3V80.7
					C49,82.357,47.657,83.7,46,83.7z"/>
			</g>
			<g>
				<path style="fill:#FFED54;" d="M20.3,73.2c-0.768,0-1.536-0.293-2.122-0.879c-1.171-1.172-1.171-3.071,0-4.242l4.8-4.8
					c1.171-1.172,3.071-1.172,4.243,0s1.171,3.071,0,4.242l-4.8,4.8C21.835,72.907,21.067,73.2,20.3,73.2z"/>
			</g>
			<g>
				<path style="fill:#FFED54;" d="M16.4,47.5H9.8c-1.657,0-3-1.343-3-3s1.343-3,3-3h6.6c1.657,0,3,1.343,3,3S18.057,47.5,16.4,47.5
					z"/>
			</g>
			<g>
				<path style="fill:#FFED54;" d="M25.1,26.6c-0.768,0-1.536-0.293-2.121-0.879l-4.8-4.8c-1.172-1.171-1.172-3.071,0-4.242
					c1.171-1.172,3.071-1.172,4.242,0l4.8,4.8c1.172,1.171,1.172,3.071,0,4.242C26.636,26.307,25.868,26.6,25.1,26.6z"/>
			</g>
		</g>
	</g>
	<g>
		<path style="fill:#FFED54;" d="M46,64c-10.752,0-19.5-8.748-19.5-19.5C26.5,33.748,35.248,25,46,25c10.752,0,19.5,8.748,19.5,19.5
			C65.5,55.252,56.752,64,46,64z M46,31c-7.444,0-13.5,6.056-13.5,13.5C32.5,51.944,38.556,58,46,58c7.444,0,13.5-6.056,13.5-13.5
			C59.5,37.056,53.444,31,46,31z"/>
	</g>
</g>
<g id="Layer_1">
</g>
</svg>
