<?xml version="1.0" encoding="iso-8859-1"?>
<!-- Generator: Adobe Illustrator 27.1.1, SVG Export Plug-In . SVG Version: 6.00 Build 0)  -->
<svg version="1.1" xmlns="http://www.w3.org/2000/svg" xmlns:xlink="http://www.w3.org/1999/xlink" x="0px" y="0px"
	 viewBox="0 0 92 92" style="enable-background:new 0 0 92 92;" xml:space="preserve">
<g id="Mist">
	<g>
		<path style="fill:#EEEEEE;" d="M62.5,30.7c-1.2,0-2.3,0.2-3.3,0.3c0-0.2-0.2-0.2-0.2-0.3H13.4c-0.7,1-1.2,2.1-1.6,3.3h61.6
			C70.2,32,66.6,30.7,62.5,30.7z"/>
		<path style="fill:#EEEEEE;" d="M77.1,37.3H10.6c-0.3,1.2-0.5,2.1-0.7,3.3h69.5C78.9,39.4,78.1,38.4,77.1,37.3z"/>
		<path style="fill:#EEEEEE;" d="M53.6,24.1H18.7c-1.2,1-2.1,2.1-3.1,3.3h41C55.7,26.2,54.7,25.3,53.6,24.1z"/>
		<path style="fill:#EEEEEE;" d="M36.1,17.5c-4.6,0-8.9,1.2-12.7,3.3H49C45,18.8,40.7,17.5,36.1,17.5z"/>
		<path style="fill:#EEEEEE;" d="M10.6,50.4c0.3,1.2,0.7,2.3,1,3.3h70.1c0.2-1.2,0.3-2.1,0.3-3.3H10.6z"/>
		<path style="fill:#EEEEEE;" d="M15.5,60.3h64c0.7-1,1.2-2.1,1.5-3.3H13.4C14.1,58.2,14.7,59.3,15.5,60.3z"/>
		<path style="fill:#EEEEEE;" d="M81.1,43.9H9.8c0,1.2,0.2,2.1,0.2,3.3h71.9C81.7,46.2,81.4,45,81.1,43.9z"/>
		<path style="fill:#EEEEEE;" d="M23.4,66.9h50c1.5-1,2.6-2,3.8-3.3H18.7C20.2,64.9,21.6,66.1,23.4,66.9z"/>
	</g>
</g>
<g id="Layer_1">
</g>
</svg>
