<?xml version="1.0" encoding="iso-8859-1"?>
<!-- Generator: Adobe Illustrator 27.1.1, SVG Export Plug-In . SVG Version: 6.00 Build 0)  -->
<svg version="1.1" xmlns="http://www.w3.org/2000/svg" xmlns:xlink="http://www.w3.org/1999/xlink" x="0px" y="0px"
	 viewBox="0 0 92 92" style="enable-background:new 0 0 92 92;" xml:space="preserve">
<g id="Partly_Cloudy__x28_Day_x29_">
	<g>
		<path style="fill:#EEEEEE;" d="M35.6,69.8c-13.896,0-25.2-11.305-25.2-25.2c0-13.896,11.305-25.2,25.2-25.2
			c9.174,0,17.504,4.88,21.922,12.639C59.153,31.61,60.766,31.4,62.4,31.4c10.531,0,19.1,8.568,19.1,19.1
			c0,10.531-8.568,19.1-19.1,19.1l-26.778,0.2C35.615,69.8,35.607,69.8,35.6,69.8z M35.6,25.4c-10.587,0-19.2,8.613-19.2,19.2
			c0,10.583,8.607,19.194,19.188,19.2l26.79-0.2c7.245,0,13.122-5.876,13.122-13.1s-5.877-13.1-13.1-13.1
			c-1.731,0-3.46,0.355-5.286,1.085c-1.512,0.604-3.226-0.105-3.87-1.599C50.241,29.909,43.315,25.4,35.6,25.4z"/>
	</g>
	<g>
		<g>
			<g>
				<path style="fill:#FFED54;" d="M59.5,10.986c-1.657,0-3-1.343-3-3V3.3c0-1.657,1.343-3,3-3s3,1.343,3,3v4.686
					C62.5,9.643,61.157,10.986,59.5,10.986z"/>
			</g>
			<g>
				<path style="fill:#FFED54;" d="M74.338,17.162c-0.768,0-1.535-0.293-2.121-0.878c-1.172-1.171-1.172-3.071,0-4.243l3.407-3.408
					c1.17-1.172,3.07-1.171,4.242,0c1.172,1.171,1.172,3.071,0,4.243l-3.407,3.408C75.874,16.869,75.105,17.162,74.338,17.162z"/>
			</g>
			<g>
				<path style="fill:#FFED54;" d="M85.2,32h-4.686c-1.657,0-3-1.343-3-3s1.343-3,3-3H85.2c1.657,0,3,1.343,3,3S86.857,32,85.2,32z"
					/>
			</g>
			<g>
				<path style="fill:#FFED54;" d="M44.662,17.162c-0.768,0-1.536-0.293-2.121-0.879l-3.408-3.408c-1.172-1.171-1.172-3.071,0-4.242
					c1.171-1.172,3.071-1.172,4.242,0l3.408,3.408c1.172,1.171,1.172,3.071,0,4.242C46.198,16.869,45.43,17.162,44.662,17.162z"/>
			</g>
		</g>
	</g>
	<g>
		<path style="fill:#FFED54;" d="M51.695,25.149c1.425-2.876,4.384-4.863,7.805-4.863c4.805,0,8.714,3.909,8.714,8.714
			c0,1.109-0.216,2.166-0.596,3.143c1.963,0.559,3.805,1.409,5.457,2.526c0.732-1.746,1.139-3.66,1.139-5.669
			c0-8.113-6.601-14.714-14.714-14.714c-5.542,0-10.374,3.082-12.883,7.62C48.438,22.78,50.14,23.872,51.695,25.149z"/>
	</g>
</g>
<g id="Layer_1">
</g>
</svg>
