<?xml version="1.0" encoding="iso-8859-1"?>
<!-- Generator: Adobe Illustrator 27.1.1, SVG Export Plug-In . SVG Version: 6.00 Build 0)  -->
<svg version="1.1" xmlns="http://www.w3.org/2000/svg" xmlns:xlink="http://www.w3.org/1999/xlink" x="0px" y="0px"
	 viewBox="0 0 92 92" style="enable-background:new 0 0 92 92;" xml:space="preserve">
<g id="Light_Rain_Showers__x28_Night_x29_">
	<g>
		<path style="fill:#ACE4FE;" d="M35.433,74.42c-0.509,0-1.025-0.13-1.497-0.403c-1.435-0.828-1.926-2.663-1.098-4.098l2.792-4.836
			c0.828-1.436,2.664-1.929,4.098-1.098c1.435,0.828,1.926,2.663,1.098,4.098l-2.792,4.836C37.478,73.882,36.469,74.42,35.433,74.42
			z"/>
	</g>
	<g>
		<path style="fill:#ACE4FE;" d="M53.433,77.42c-0.509,0-1.024-0.13-1.497-0.403c-1.435-0.828-1.927-2.663-1.098-4.098l2.792-4.836
			c0.829-1.434,2.662-1.928,4.098-1.098c1.435,0.828,1.927,2.663,1.098,4.098l-2.792,4.836C55.478,76.881,54.47,77.42,53.433,77.42z
			"/>
	</g>
	<g>
		<path style="fill:#ACE4FE;" d="M40.433,84.42c-0.509,0-1.025-0.13-1.497-0.403c-1.435-0.828-1.926-2.663-1.098-4.098l2.792-4.836
			c0.828-1.436,2.664-1.928,4.098-1.098c1.435,0.828,1.926,2.663,1.098,4.098l-2.792,4.836C42.478,83.882,41.469,84.42,40.433,84.42
			z"/>
	</g>
	<g>
		<path style="fill:#EEEEEE;" d="M67.401,69.001c-1.206,0-2.343-0.731-2.801-1.924c-0.595-1.547,0.177-3.282,1.723-3.877
			c1.178-0.453,2.29-0.881,3.213-1.496C73.38,59.083,75.6,54.992,75.6,50.5c0-7.224-5.877-13.1-13.1-13.1
			c-1.731,0-3.46,0.355-5.286,1.085c-1.51,0.604-3.228-0.105-3.87-1.6C50.342,29.908,43.416,25.4,35.7,25.4
			c-10.587,0-19.2,8.613-19.2,19.2c0,6.606,3.473,12.72,9.29,16.356c0.099,0.062,0.193,0.129,0.284,0.201
			c0.578,0.463,1.53,0.856,2.452,1.237l0.328,0.136c1.529,0.638,2.252,2.394,1.616,3.923c-0.637,1.529-2.39,2.255-3.923,1.616
			l-0.314-0.13c-1.199-0.496-2.551-1.056-3.759-1.981C14.973,61.208,10.5,53.236,10.5,44.6c0-13.896,11.305-25.2,25.2-25.2
			c9.174,0,17.505,4.88,21.923,12.639c1.63-0.428,3.242-0.639,4.877-0.639c10.531,0,19.1,8.568,19.1,19.1
			c0,6.508-3.175,12.404-8.709,16.179c-1.504,1.002-3.049,1.597-4.413,2.121C68.123,68.937,67.759,69.001,67.401,69.001z"/>
	</g>
	<g>
		<g>
			<path style="fill:#EEEEEE;" d="M50.256,24.051c1.017-3.141,3.588-5.686,7.037-6.463c1.103,5.882,5.735,10.514,11.691,11.544
				c-0.268,1.092-0.729,2.104-1.317,3.024c1.601,0.46,3.11,1.128,4.509,1.966c1.192-2.109,1.881-4.537,1.881-7.123l-0.221-2.647
				c-1.397,0.368-2.867,0.368-4.338,0c-5.22-1.176-8.456-6.397-7.279-11.617c-0.882-0.147-1.765-0.221-2.647-0.221
				c-6.122,0-11.374,3.78-13.519,9.135C47.532,22.315,48.939,23.119,50.256,24.051z"/>
		</g>
	</g>
</g>
<g id="Layer_1">
</g>
</svg>
