<?xml version="1.0" encoding="iso-8859-1"?>
<!-- Generator: Adobe Illustrator 27.1.1, SVG Export Plug-In . SVG Version: 6.00 Build 0)  -->
<svg version="1.1" xmlns="http://www.w3.org/2000/svg" xmlns:xlink="http://www.w3.org/1999/xlink" x="0px" y="0px"
	 viewBox="0 0 92 92" style="enable-background:new 0 0 92 92;" xml:space="preserve">
<g id="Drizzle">
	<g>
		<path style="fill:#EEEEEE;" d="M67.401,69.001c-1.206,0-2.343-0.731-2.801-1.924c-0.595-1.547,0.177-3.282,1.723-3.877
			c1.178-0.453,2.29-0.881,3.213-1.496C73.38,59.083,75.6,54.992,75.6,50.5c0-7.224-5.877-13.1-13.1-13.1
			c-1.731,0-3.46,0.355-5.286,1.085c-1.51,0.604-3.228-0.105-3.87-1.6C50.342,29.908,43.416,25.4,35.7,25.4
			c-10.587,0-19.2,8.613-19.2,19.2c0,6.606,3.473,12.72,9.29,16.356c0.099,0.062,0.193,0.129,0.284,0.201
			c0.578,0.463,1.53,0.856,2.452,1.237l0.328,0.136c1.529,0.638,2.252,2.394,1.616,3.923c-0.637,1.529-2.39,2.255-3.923,1.616
			l-0.314-0.13c-1.199-0.496-2.551-1.056-3.759-1.981C14.973,61.208,10.5,53.236,10.5,44.6c0-13.896,11.305-25.2,25.2-25.2
			c9.174,0,17.505,4.88,21.923,12.639c1.63-0.428,3.242-0.639,4.877-0.639c10.531,0,19.1,8.568,19.1,19.1
			c0,6.508-3.175,12.404-8.709,16.179c-1.504,1.002-3.049,1.597-4.413,2.121C68.123,68.937,67.759,69.001,67.401,69.001z"/>
	</g>
	<g>
		<path style="fill:#ACE4FE;" d="M37.229,70.31c-0.339,0-0.684-0.086-0.999-0.269c-0.957-0.553-1.284-1.775-0.731-2.732l0.998-1.727
			c0.552-0.956,1.776-1.286,2.732-0.73c0.957,0.553,1.284,1.775,0.731,2.732l-0.998,1.727C38.592,69.951,37.919,70.31,37.229,70.31z
			"/>
	</g>
	<g>
		<path style="fill:#ACE4FE;" d="M47.229,70.31c-0.339,0-0.683-0.086-0.998-0.268c-0.957-0.553-1.284-1.776-0.732-2.732l0.997-1.727
			c0.551-0.956,1.775-1.286,2.732-0.732c0.957,0.553,1.284,1.776,0.732,2.732l-0.997,1.727C48.592,69.951,47.92,70.31,47.229,70.31z
			"/>
	</g>
	<g>
		<path style="fill:#ACE4FE;" d="M57.229,70.31c-0.339,0-0.684-0.086-0.998-0.268c-0.957-0.553-1.284-1.776-0.732-2.732l0.997-1.727
			c0.552-0.956,1.776-1.286,2.732-0.732c0.957,0.553,1.284,1.776,0.732,2.732l-0.997,1.727C58.592,69.951,57.92,70.31,57.229,70.31z
			"/>
	</g>
	<g>
		<path style="fill:#ACE4FE;" d="M49.229,79.31c-0.339,0-0.684-0.086-0.998-0.268c-0.957-0.553-1.284-1.776-0.732-2.732l0.997-1.727
			c0.553-0.957,1.776-1.285,2.732-0.732c0.957,0.553,1.284,1.776,0.732,2.732l-0.997,1.727C50.592,78.951,49.92,79.31,49.229,79.31z
			"/>
	</g>
	<g>
		<path style="fill:#ACE4FE;" d="M39.229,79.31c-0.339,0-0.684-0.086-0.999-0.269c-0.957-0.553-1.284-1.775-0.731-2.732l0.998-1.727
			c0.552-0.955,1.776-1.286,2.732-0.73c0.957,0.553,1.284,1.775,0.731,2.732l-0.998,1.727C40.592,78.951,39.919,79.31,39.229,79.31z
			"/>
	</g>
</g>
<g id="Layer_1">
</g>
</svg>
