<svg xmlns="http://www.w3.org/2000/svg" xmlns:xlink="http://www.w3.org/1999/xlink"><symbol viewBox="0 0 24 24" fill="currentColor" id="clock" xmlns="http://www.w3.org/2000/svg"><path d="M12 24C5.383 24 0 18.617 0 12S5.383 0 12 0s12 5.383 12 12-5.383 12-12 12Zm0-21c-4.962 0-9 4.037-9 9s4.038 9 9 9 9-4.037 9-9-4.037-9-9-9Zm5 9.5a1.5 1.5 0 0 0-1.5-1.5H13V6.5a1.5 1.5 0 1 0-3 0v6a1.5 1.5 0 0 0 1.5 1.5h4a1.5 1.5 0 0 0 1.5-1.5Z"/></symbol><symbol xml:space="preserve" style="enable-background:new 0 0 1000 1000" viewBox="0 0 1000 1000" id="compass" xmlns="http://www.w3.org/2000/svg"><style>.st0{fill:#fff}</style><path d="M500 285c118.7 0 215 96.3 215 215s-96.3 215-215 215-215-96.3-215-215 96.3-215 215-215m0-20c-31.7 0-62.5 6.2-91.5 18.5-28 11.8-53.1 28.8-74.7 50.4s-38.5 46.7-50.4 74.7c-12.3 29-18.5 59.8-18.5 91.5s6.2 62.5 18.5 91.5c11.8 28 28.8 53.1 50.4 74.7s46.7 38.5 74.7 50.4c29 12.3 59.8 18.5 91.5 18.5s62.5-6.2 91.5-18.5c28-11.8 53.1-28.8 74.7-50.4s38.5-46.7 50.4-74.7c12.3-29 18.5-59.8 18.5-91.5s-6.2-62.5-18.5-91.5c-11.8-28-28.8-53.1-50.4-74.7s-46.7-38.5-74.7-50.4c-29-12.3-59.8-18.5-91.5-18.5z"/><path d="M500 55c60.1 0 118.4 11.8 173.2 34.9 53 22.4 100.6 54.5 141.5 95.4 40.9 40.9 73 88.5 95.4 141.5C933.2 381.6 945 439.9 945 500s-11.8 118.4-34.9 173.2c-22.4 53-54.5 100.6-95.4 141.5-40.9 40.9-88.5 73-141.5 95.4C618.4 933.2 560.1 945 500 945s-118.4-11.8-173.2-34.9c-53-22.4-100.6-54.5-141.5-95.4-40.9-40.9-73-88.5-95.4-141.5C66.8 618.4 55 560.1 55 500s11.8-118.4 34.9-173.2c22.4-53 54.5-100.6 95.4-141.5 40.9-40.9 88.5-73 141.5-95.4C381.6 66.8 439.9 55 500 55m0-55C223.9 0 0 223.9 0 500s223.9 500 500 500 500-223.9 500-500S776.1 0 500 0z"/><path d="M520 108h20.7v105H525l-45-64.2V213h-20.7V108H475l45 64v-64zm-18.1 787.6c-10.4 0-19.2-2.3-26.3-7-7.1-4.7-12.1-11-15-19l17.7-10.3c4.1 10.7 12.2 16 24.2 16 5.8 0 10-1 12.8-3.1 2.7-2.1 4-4.7 4-8 0-3.7-1.6-6.6-5-8.6-3.3-2-9.2-4.3-17.7-6.7-4.7-1.4-8.7-2.8-11.9-4.2-3.3-1.4-6.5-3.3-9.8-5.6-3.3-2.3-5.7-5.3-7.4-8.9-1.7-3.6-2.5-7.8-2.5-12.6 0-9.5 3.4-17.1 10.1-22.7 6.8-5.6 14.9-8.5 24.4-8.5 8.5 0 16 2.1 22.4 6.2 6.5 4.2 11.5 9.9 15.1 17.3l-17.4 10c-4.2-9-10.9-13.5-20.1-13.5-4.3 0-7.7 1-10.1 2.9-2.5 2-3.7 4.5-3.7 7.6 0 3.3 1.4 6 4.1 8 2.7 2.1 8 4.3 15.8 6.7 3.2 1 5.6 1.8 7.3 2.3 1.7.6 3.9 1.4 6.8 2.6 2.9 1.2 5 2.2 6.6 3.2 1.5 1 3.3 2.4 5.3 4 2 1.7 3.5 3.5 4.6 5.2s2 4 2.7 6.5 1.1 5.3 1.1 8.3c0 9.7-3.5 17.4-10.6 23.1s-16.2 8.8-27.5 8.8zM125.1 544 97.3 439H119l20.2 77.8L161 439h17.9l22 77.7 19.9-77.7h19.9l-27.6 105h-23.6l-19.9-69.7L150 544h-24.9zm687.5-19.8h44.2V544h-65V439H856v19.8h-43.5v22.4h39.8v19.5h-39.8v23.5z"/><g class="js-compass-dial"><path d="m574.6 530-75 390-75-390h150m0-20h-150c-6 0-11.6 2.7-15.4 7.3-3.8 4.6-5.3 10.7-4.2 16.5l75 390c1.8 9.4 10.1 16.2 19.6 16.2s17.8-6.8 19.6-16.2l74.9-389.5c.3-1.4.5-2.8.5-4.3 0-11-8.9-20-20-20zm0 40z" class="st0"/><path d="M425 480c-3 0-5.8-1.3-7.7-3.6-1.9-2.3-2.7-5.3-2.1-8.3l75-390c.9-4.7 5-8.1 9.8-8.1 4.8 0 8.9 3.4 9.8 8.1l75 390c.6 2.9-.2 6-2.1 8.3S578 480 575 480H425z"/><path d="m500 80 75 390H425l75-390m0-20c-9.6 0-17.8 6.8-19.6 16.2l-75 390c-1.1 5.9.4 11.9 4.2 16.5 3.8 4.6 9.5 7.3 15.4 7.3h150c6 0 11.6-2.7 15.4-7.3 3.8-4.6 5.3-10.7 4.2-16.5l-75-390c-1.8-9.4-10-16.2-19.6-16.2z" class="st0"/><path d="M499.6 930c-4.8 0-8.9-3.4-9.8-8.1l-75-390c-.6-2.9.2-6 2.1-8.3 1.9-2.3 4.7-3.6 7.7-3.6h150c3 0 5.8 1.3 7.7 3.6s2.7 5.3 2.1 8.3l-75 390c-.9 4.7-5 8.1-9.8 8.1z"/><path d="m574.6 530-75 390-75-390h150m0-20h-150c-6 0-11.6 2.7-15.4 7.3-3.8 4.6-5.3 10.7-4.2 16.5l75 390c1.8 9.4 10.1 16.2 19.6 16.2s17.8-6.8 19.6-16.2l74.9-389.5c.3-1.4.5-2.8.5-4.3 0-11-8.9-20-20-20zm0 40z" class="st0"/><circle cx="500" cy="500" r="40"/><path d="M500 470c16.6 0 30 13.4 30 30s-13.4 30-30 30-30-13.4-30-30 13.4-30 30-30m0-20c-27.6 0-50 22.4-50 50s22.4 50 50 50 50-22.4 50-50-22.4-50-50-50z" class="st0"/></g></symbol><symbol viewBox="0 0 24 24" fill="currentColor" id="crosshairs" xmlns="http://www.w3.org/2000/svg"><path d="M12 7c-2.757 0-5 2.243-5 5s2.243 5 5 5 5-2.243 5-5-2.243-5-5-5Zm0 8c-1.654 0-3-1.346-3-3s1.346-3 3-3 3 1.346 3 3-1.346 3-3 3Zm11-4h-1.05c-.471-4.717-4.233-8.48-8.95-8.95V1a1 1 0 1 0-2 0v1.05C6.283 2.52 2.52 6.283 2.05 11H1a1 1 0 1 0 0 2h1.05c.471 4.717 4.233 8.48 8.95 8.95V23a1 1 0 1 0 2 0v-1.05c4.717-.471 8.48-4.233 8.95-8.95H23a1 1 0 1 0 0-2Zm-11 9c-4.411 0-8-3.589-8-8s3.589-8 8-8 8 3.589 8 8-3.589 8-8 8Z"/></symbol><symbol viewBox="0 0 512.051 512.051" style="enable-background:new 0 0 512.051 512.051" xml:space="preserve" fill="currentColor" id="settings" xmlns="http://www.w3.org/2000/svg"><path d="M21.359 101.359h58.368c11.52 42.386 55.219 67.408 97.605 55.888a79.531 79.531 0 0 0 55.888-55.888h257.472c11.782 0 21.333-9.551 21.333-21.333s-9.551-21.333-21.333-21.333H233.22C221.7 16.306 178.001-8.716 135.615 2.804a79.531 79.531 0 0 0-55.888 55.888H21.359C9.577 58.692.026 68.243.026 80.025s9.551 21.334 21.333 21.334zM490.692 234.692h-58.368c-11.497-42.38-55.172-67.416-97.552-55.92a79.51 79.51 0 0 0-55.92 55.92H21.359c-11.782 0-21.333 9.551-21.333 21.333 0 11.782 9.551 21.333 21.333 21.333h257.493c11.497 42.38 55.172 67.416 97.552 55.92a79.51 79.51 0 0 0 55.92-55.92h58.368c11.782 0 21.333-9.551 21.333-21.333 0-11.782-9.551-21.333-21.333-21.333zM490.692 410.692H233.22c-11.52-42.386-55.219-67.408-97.605-55.888a79.531 79.531 0 0 0-55.888 55.888H21.359c-11.782 0-21.333 9.551-21.333 21.333 0 11.782 9.551 21.333 21.333 21.333h58.368c11.52 42.386 55.219 67.408 97.605 55.888a79.531 79.531 0 0 0 55.888-55.888h257.472c11.782 0 21.333-9.551 21.333-21.333 0-11.782-9.551-21.333-21.333-21.333z"/></symbol><symbol viewBox="0 0 24 24" fill="currentColor" id="sunrise" xmlns="http://www.w3.org/2000/svg"><path d="M18.92 22a6.952 6.952 0 0 0-.433-1.619l4.4-2.559-1.006-1.728-4.4 2.56a7.04 7.04 0 0 0-1.139-1.137l2.553-4.39-1.729-1.006-2.556 4.389a6.95 6.95 0 0 0-1.61-.43V11h-2v5.08a6.914 6.914 0 0 0-1.6.425l-2.55-4.384-1.724 1.006 2.548 4.381a7.028 7.028 0 0 0-1.147 1.14L2.14 16.094l-1.006 1.728 4.382 2.551A6.972 6.972 0 0 0 5.08 22H0v2h24v-2ZM7.1 22a5 5 0 0 1 9.8 0ZM15.293 5.293l1.414-1.414L13.414.586a2 2 0 0 0-2.828 0L7.293 3.879l1.414 1.414L11 3v6h2V3Z"/></symbol><symbol viewBox="0 0 24 24" fill="currentColor" id="sunset" xmlns="http://www.w3.org/2000/svg"><path d="M18.92 22a6.952 6.952 0 0 0-.433-1.619l4.4-2.559-1.006-1.728-4.4 2.56a7.046 7.046 0 0 0-1.14-1.137l2.553-4.39-1.729-1.005-2.555 4.388a6.95 6.95 0 0 0-1.61-.43V11h-2v5.08a6.914 6.914 0 0 0-1.6.425l-2.55-4.383-1.724 1.005 2.548 4.381a7.028 7.028 0 0 0-1.147 1.14L2.14 16.094l-1.006 1.728 4.382 2.551A6.924 6.924 0 0 0 5.08 22H0v2h24v-2ZM7.1 22a5 5 0 0 1 9.8 0ZM8.707 3.707 7.293 5.121l3.293 3.293a2 2 0 0 0 2.828 0l3.293-3.293-1.414-1.414L13 6V0h-2v6Z"/></symbol><symbol viewBox="0 0 24 24" fill="currentColor" id="umbrella" xmlns="http://www.w3.org/2000/svg"><path d="M13 2.051V0h-2v2.051A12.009 12.009 0 0 0 0 14v1h11v6a1 1 0 0 1-2 0H7a3 3 0 0 0 6 0v-6h11v-1A12.009 12.009 0 0 0 13 2.051zM2.05 13a10 10 0 0 1 19.9 0z"/></symbol><symbol viewBox="0 0 24 24" id="wind" xmlns="http://www.w3.org/2000/svg"><path fill="currentColor" d="M0 12a1 1 0 0 1 1-1h6a1 1 0 0 1 0 2H1a1 1 0 0 1-1-1Zm20.886-.893A4.99 4.99 0 1 0 12 8a1 1 0 0 0 2 0 3 3 0 1 1 3 3h-6a1 1 0 0 0 0 2h9a2 2 0 0 1 2 2c-.009 2.337-3.281 2.648-4.057.667a1 1 0 0 0-1.886.666C17.615 20.415 23.952 19.579 24 15a4 4 0 0 0-3.114-3.893ZM11 16H1a1 1 0 0 0 0 2h10a2 2 0 0 1 2 2c-.009 2.337-3.281 2.648-4.057.667a1 1 0 1 0-1.886.666C8.615 25.415 14.952 24.579 15 20a4 4 0 0 0-4-4ZM1 8h6a4 4 0 0 0 4-4c-.048-4.581-6.387-5.414-7.943-1.333a1 1 0 0 0 1.886.666C5.72 1.351 8.991 1.663 9 4a2 2 0 0 1-2 2H1a1 1 0 0 0 0 2Z"/></symbol></svg>